<svg xmlns="http://www.w3.org/2000/svg" width="1200" height="630" viewBox="0 0 1200 630" role="img" aria-labelledby="title desc">
  <title id="title">헬로메이플 운영 백오피스 구조</title>
  <desc id="desc">월드와 수업자료를 관리하는 콘텐츠 카테고리, 네 가지 배너를 관리하는 운영 배너, 그리고 국가와 언어, 기간, 상태, 순서, 링크를 공통 정책으로 관리하는 구조</desc>
  <defs>
    <linearGradient id="header" x1="0" y1="0" x2="1" y2="0">
      <stop offset="0" stop-color="#287cff"/>
      <stop offset="1" stop-color="#4d59ff"/>
    </linearGradient>
    <filter id="shadow" x="-20%" y="-20%" width="140%" height="140%">
      <feDropShadow dx="0" dy="8" stdDeviation="12" flood-color="#173a91" flood-opacity=".12"/>
    </filter>
  </defs>
  <rect width="1200" height="630" rx="28" fill="#f5f8ff"/>
  <rect x="40" y="32" width="1120" height="88" rx="20" fill="url(#header)"/>
  <text x="76" y="86" fill="#ffffff" font-family="Pretendard, Apple SD Gothic Neo, Malgun Gothic, sans-serif" font-size="34" font-weight="800">운영자가 직접 제어하는 콘텐츠 노출 구조</text>

  <g filter="url(#shadow)">
    <rect x="70" y="168" width="435" height="250" rx="24" fill="#ffffff"/>
    <rect x="695" y="168" width="435" height="250" rx="24" fill="#ffffff"/>
    <rect x="260" y="472" width="680" height="104" rx="24" fill="#ffffff"/>
  </g>

  <rect x="70" y="168" width="435" height="12" rx="6" fill="#11bea5"/>
  <text x="105" y="228" fill="#17203b" font-family="Pretendard, Apple SD Gothic Neo, Malgun Gothic, sans-serif" font-size="29" font-weight="800">콘텐츠 카테고리 관리</text>
  <text x="105" y="272" fill="#68718f" font-family="Pretendard, Apple SD Gothic Neo, Malgun Gothic, sans-serif" font-size="19">월드와 수업 자료를 묶고 노출하는 기능</text>
  <rect x="105" y="310" width="160" height="58" rx="14" fill="#e8fbf7"/>
  <rect x="282" y="310" width="188" height="58" rx="14" fill="#e8fbf7"/>
  <text x="185" y="347" text-anchor="middle" fill="#087d6d" font-family="Pretendard, Apple SD Gothic Neo, Malgun Gothic, sans-serif" font-size="20" font-weight="700">카테고리 생성</text>
  <text x="376" y="347" text-anchor="middle" fill="#087d6d" font-family="Pretendard, Apple SD Gothic Neo, Malgun Gothic, sans-serif" font-size="20" font-weight="700">노출·순서 관리</text>
  <text x="105" y="398" fill="#7a829c" font-family="Pretendard, Apple SD Gothic Neo, Malgun Gothic, sans-serif" font-size="17">CSV 일괄 등록 · 생성과 라이브 노출 분리</text>

  <rect x="695" y="168" width="435" height="12" rx="6" fill="#ff8a5c"/>
  <text x="730" y="228" fill="#17203b" font-family="Pretendard, Apple SD Gothic Neo, Malgun Gothic, sans-serif" font-size="29" font-weight="800">운영 배너 관리</text>
  <text x="730" y="272" fill="#68718f" font-family="Pretendard, Apple SD Gothic Neo, Malgun Gothic, sans-serif" font-size="19">목적과 위치에 따라 네 가지 유형으로 분리</text>
  <rect x="730" y="310" width="86" height="58" rx="14" fill="#fff0ea"/>
  <rect x="827" y="310" width="86" height="58" rx="14" fill="#fff0ea"/>
  <rect x="924" y="310" width="86" height="58" rx="14" fill="#fff0ea"/>
  <rect x="1021" y="310" width="74" height="58" rx="14" fill="#fff0ea"/>
  <text x="773" y="347" text-anchor="middle" fill="#a84720" font-family="Pretendard, Apple SD Gothic Neo, Malgun Gothic, sans-serif" font-size="18" font-weight="700">띠배너</text>
  <text x="870" y="347" text-anchor="middle" fill="#a84720" font-family="Pretendard, Apple SD Gothic Neo, Malgun Gothic, sans-serif" font-size="18" font-weight="700">전면</text>
  <text x="967" y="347" text-anchor="middle" fill="#a84720" font-family="Pretendard, Apple SD Gothic Neo, Malgun Gothic, sans-serif" font-size="18" font-weight="700">메인</text>
  <text x="1058" y="347" text-anchor="middle" fill="#a84720" font-family="Pretendard, Apple SD Gothic Neo, Malgun Gothic, sans-serif" font-size="18" font-weight="700">LNB</text>
  <text x="730" y="398" fill="#7a829c" font-family="Pretendard, Apple SD Gothic Neo, Malgun Gothic, sans-serif" font-size="17">PC·모바일 이미지 · 유형별 입력 항목 분리</text>

  <path d="M287 418 V455 H475" fill="none" stroke="#aeb8d5" stroke-width="3"/>
  <path d="M913 418 V455 H725" fill="none" stroke="#aeb8d5" stroke-width="3"/>
  <text x="600" y="507" text-anchor="middle" fill="#17203b" font-family="Pretendard, Apple SD Gothic Neo, Malgun Gothic, sans-serif" font-size="22" font-weight="800">공통 노출 정책</text>
  <text x="600" y="548" text-anchor="middle" fill="#4d59ff" font-family="Pretendard, Apple SD Gothic Neo, Malgun Gothic, sans-serif" font-size="20" font-weight="700">국가 그룹 · 언어 · 노출 기간 · 상태 · 정렬 순서 · 링크 타입</text>
</svg>
